<svg data-v-fde0c5aa="" xmlns="http://www.w3.org/2000/svg" viewBox="0 0 300 300" class="iconLeft"><!----><defs data-v-fde0c5aa=""><!----></defs><rect data-v-fde0c5aa="" fill="#AFC2ED" x="0" y="0" width="300px" height="300px" class="logo-background-square"></rect><defs data-v-fde0c5aa=""><!----></defs><g data-v-fde0c5aa="" id="5fe0baeb-d231-40be-be7a-8776e6b8f371" fill="#17197D" transform="matrix(1.4517377031847434,0,0,1.4517377031847434,95.59070026863044,142.68324151214642)"><path d="M4.06 5.74L4.06 5.74L4.06 5.74Q2.27 5.50 1.44 4.77L1.44 4.77L1.44 4.77Q0.62 4.05 0.62 2.70L0.62 2.70L0.62 2.56L0.62 2.56Q0.62 1.11 1.60 0.25L1.60 0.25L1.60 0.25Q2.59-0.60 4.35-0.60L4.35-0.60L4.35-0.60Q6.27-0.60 7.17 0.31L7.17 0.31L7.17 0.31Q8.08 1.22 8.08 3.08L8.08 3.08L8.08 3.40L6.20 3.40L6.20 3.40Q6.20 2.17 5.77 1.60L5.77 1.60L5.77 1.60Q5.33 1.04 4.37 1.04L4.37 1.04L4.24 1.04L4.24 1.04Q3.47 1.04 3.00 1.43L3.00 1.43L3.00 1.43Q2.53 1.82 2.53 2.46L2.53 2.46L2.53 2.55L2.53 2.55Q2.53 3.26 2.98 3.64L2.98 3.64L2.98 3.64Q3.43 4.02 4.66 4.19L4.66 4.19L4.66 4.19Q6.48 4.44 7.33 5.15L7.33 5.15L7.33 5.15Q8.18 5.87 8.18 7.28L8.18 7.28L8.18 7.43L8.18 7.43Q8.18 8.97 7.17 9.83L7.17 9.83L7.17 9.83Q6.17 10.68 4.35 10.68L4.35 10.68L4.35 10.68Q0.52 10.68 0.52 6.96L0.52 6.96L0.52 6.82L2.39 6.82L2.39 6.82Q2.39 9.04 4.28 9.04L4.28 9.04L4.41 9.04L4.41 9.04Q5.28 9.04 5.77 8.62L5.77 8.62L5.77 8.62Q6.26 8.20 6.26 7.50L6.26 7.50L6.26 7.42L6.26 7.42Q6.26 6.69 5.77 6.30L5.77 6.30L5.77 6.30Q5.28 5.91 4.06 5.74ZM8.95 10.50L11.82-0.48L14.41-0.48L17.28 10.50L15.26 10.50L14.66 8.01L11.58 8.01L10.98 10.50L8.95 10.50ZM14.25 6.37L13.12 1.67L11.97 6.37L14.25 6.37ZM24.35-0.42L26.12-0.42L26.12 10.50L24.14 10.50L20.10 2.97L20.16 5.28L20.16 10.50L18.38 10.50L18.38-0.42L20.37-0.42L24.40 7.11L24.35 4.80L24.35-0.42ZM31.65 6.92L31.65-0.42L33.53-0.42L33.53 7.15L33.53 7.15Q33.53 10.68 30.42 10.68L30.42 10.68L30.42 10.68Q28.76 10.68 28.04 9.79L28.04 9.79L28.04 9.79Q27.33 8.90 27.33 7.14L27.33 7.14L27.33 6.82L29.11 6.82L29.11 6.82Q29.11 7.98 29.39 8.51L29.39 8.51L29.39 8.51Q29.68 9.04 30.38 9.04L30.38 9.04L30.38 9.04Q31.07 9.04 31.36 8.53L31.36 8.53L31.36 8.53Q31.65 8.01 31.65 6.92L31.65 6.92ZM34.57 10.50L37.44-0.48L40.03-0.48L42.90 10.50L40.88 10.50L40.28 8.01L37.20 8.01L36.60 10.50L34.57 10.50ZM39.87 6.37L38.74 1.67L37.59 6.37L39.87 6.37ZM51.52-0.42L48.36 7.17L48.36 10.50L46.48 10.50L46.48 7.17L43.32-0.42L45.36-0.42L47.42 4.86L49.48-0.42L51.52-0.42ZM57.02 4.76L57.02 5.32L57.02 5.32Q57.02 7.24 57.48 8.14L57.48 8.14L57.48 8.14Q57.95 9.04 59.08 9.04L59.08 9.04L59.21 9.04L59.21 9.04Q60.97 9.04 60.97 6.82L60.97 6.82L62.86 6.82L62.86 6.96L62.86 6.96Q62.86 8.88 61.93 9.78L61.93 9.78L61.93 9.78Q61.00 10.68 59.09 10.68L59.09 10.68L59.09 10.68Q57.04 10.68 56.07 9.41L56.07 9.41L56.07 9.41Q55.10 8.13 55.10 5.32L55.10 5.32L55.10 4.76L55.10 4.76Q55.10 1.95 56.07 0.67L56.07 0.67L56.07 0.67Q57.04-0.60 59.09-0.60L59.09-0.60L59.09-0.60Q61.00-0.60 61.93 0.31L61.93 0.31L61.93 0.31Q62.86 1.23 62.86 3.21L62.86 3.21L62.86 3.68L60.97 3.68L60.97 3.68Q60.97 2.32 60.57 1.68L60.57 1.68L60.57 1.68Q60.17 1.04 59.21 1.04L59.21 1.04L59.08 1.04L59.08 1.04Q57.95 1.04 57.48 1.94L57.48 1.94L57.48 1.94Q57.02 2.84 57.02 4.76L57.02 4.76ZM69.89 4.12L69.89-0.42L71.76-0.42L71.76 10.50L69.89 10.50L69.89 5.74L66.18 5.74L66.18 10.50L64.30 10.50L64.30-0.42L66.18-0.42L66.18 4.12L69.89 4.12ZM72.87 10.50L75.74-0.48L78.33-0.48L81.20 10.50L79.18 10.50L78.58 8.01L75.50 8.01L74.90 10.50L72.87 10.50ZM78.18 6.37L77.04 1.67L75.89 6.37L78.18 6.37ZM85.78 6.43L84.18 6.43L84.18 10.50L82.31 10.50L82.31-0.42L85.72-0.42L85.72-0.42Q89.38-0.42 89.38 2.86L89.38 2.86L89.38 3.14L89.38 3.14Q89.38 5.43 87.60 6.13L87.60 6.13L89.38 10.50L87.35 10.50L85.78 6.43ZM84.18 1.22L84.18 4.79L85.79 4.79L85.79 4.79Q87.47 4.79 87.47 3.08L87.47 3.08L87.47 2.93L87.47 2.93Q87.47 1.22 85.79 1.22L85.79 1.22L84.18 1.22ZM96.95 8.86L96.95 10.50L90.86 10.50L90.86-0.42L92.74-0.42L92.74 8.86L96.95 8.86ZM98.01 10.50L98.01-0.42L104.51-0.42L104.51 1.22L99.89 1.22L99.89 4.12L103.81 4.12L103.81 5.74L99.89 5.74L99.89 8.86L104.51 8.86L104.51 10.50L98.01 10.50ZM109.13 5.74L109.13 5.74L109.13 5.74Q107.34 5.50 106.51 4.77L106.51 4.77L106.51 4.77Q105.69 4.05 105.69 2.70L105.69 2.70L105.69 2.56L105.69 2.56Q105.69 1.11 106.67 0.25L106.67 0.25L106.67 0.25Q107.66-0.60 109.42-0.60L109.42-0.60L109.42-0.60Q111.34-0.60 112.24 0.31L112.24 0.31L112.24 0.31Q113.15 1.22 113.15 3.08L113.15 3.08L113.15 3.40L111.27 3.40L111.27 3.40Q111.27 2.17 110.84 1.60L110.84 1.60L110.84 1.60Q110.40 1.04 109.44 1.04L109.44 1.04L109.31 1.04L109.31 1.04Q108.54 1.04 108.07 1.43L108.07 1.43L108.07 1.43Q107.60 1.82 107.60 2.46L107.60 2.46L107.60 2.55L107.60 2.55Q107.60 3.26 108.05 3.64L108.05 3.64L108.05 3.64Q108.50 4.02 109.73 4.19L109.73 4.19L109.73 4.19Q111.55 4.44 112.40 5.15L112.40 5.15L112.40 5.15Q113.25 5.87 113.25 7.28L113.25 7.28L113.25 7.43L113.25 7.43Q113.25 8.97 112.24 9.83L112.24 9.83L112.24 9.83Q111.24 10.68 109.42 10.68L109.42 10.68L109.42 10.68Q105.59 10.68 105.59 6.96L105.59 6.96L105.59 6.82L107.46 6.82L107.46 6.82Q107.46 9.04 109.35 9.04L109.35 9.04L109.48 9.04L109.48 9.04Q110.35 9.04 110.84 8.62L110.84 8.62L110.84 8.62Q111.33 8.20 111.33 7.50L111.33 7.50L111.33 7.42L111.33 7.42Q111.33 6.69 110.84 6.30L110.84 6.30L110.84 6.30Q110.35 5.91 109.13 5.74Z"></path></g><defs data-v-fde0c5aa=""><!----></defs><g data-v-fde0c5aa="" id="057c434c-2cbd-44ad-a7dd-545e59e4f355" stroke="none" fill="#4D25D6" transform="matrix(0.4816070831907702,0,0,0.4816070831907702,37.59244914164881,125.9189229080761)"><path d="M95.001 41.849l-.265-1.084-1.456-.905-4.46-2.369-.232-.518-3.856-1.992-2.911-.002.007.002-3.386-.002-1.145-1.251-1.683-.992-1.655.546-.007 1.002-7.479-.836-7.462-4.016-2.604-.24-11.604-.562-15.042-4.13-11.242 3.607-7.317 6.329c-.118.169-2.991 6.328-2.991 6.328l.745 12.378-3.957 7.353V66.304l6.052 6.684 7.468-.132-.118-.405h1.137l-.659-1.569-4.228-.486.005-.104.211-4.712 2.537-3.259 5.477-2.902 1.173-1.505 1.462 2.583 4.957 10.817-.029 1.257v1.675l.791.866h16.167l.173-.452h1.186l-.112-1.588-1.341-.508-1.924-.112-5.74-4.991-.381-9.483.876.349 5.082-2.352.239-.491 1.319 11.978 3.711 6.093.03.274 5.429 1.674h2.671l.279-.893v.503h.67l.335-1.284-.391-1.564-3.564-.376-.978-1.468v-6.926l2.271-5.529.686-1.133 9.485-7.235-.542-.943 1.117.58 6.291.523 11.15-3.948 4.901-.232 2.181-1.078-4.558-1.319-.109-.375 4.972 1.239h.465l1.227-1.802-.67-.759.808.521.355-.156zM76.27 36.421l-1.015-1.068-.203-1.292 1.292-.099.778 1.728-.852.731zm9.363 1.355l.03-.611 1.247-.281.779.708-2.056.184z"></path></g><!----></svg>