<svg data-v-fde0c5aa="" xmlns="http://www.w3.org/2000/svg" viewBox="0 0 300 300" class="iconAbove"><!----><defs data-v-fde0c5aa=""><!----></defs><rect data-v-fde0c5aa="" fill="#5E6FD3" x="0" y="0" width="300px" height="300px" class="logo-background-square"></rect><defs data-v-fde0c5aa=""><!----></defs><g data-v-fde0c5aa="" id="c1c52fce-b944-4005-a190-9925d81650f4" fill="#ffffff" transform="matrix(2.813548205783776,0,0,2.813548205783776,18.53695498665661,180.91753957722457)"><path d="M4.06 5.74L4.06 5.74L4.06 5.74Q2.27 5.50 1.44 4.77L1.44 4.77L1.44 4.77Q0.62 4.05 0.62 2.70L0.62 2.70L0.62 2.56L0.62 2.56Q0.62 1.11 1.60 0.25L1.60 0.25L1.60 0.25Q2.59-0.60 4.35-0.60L4.35-0.60L4.35-0.60Q6.27-0.60 7.17 0.31L7.17 0.31L7.17 0.31Q8.08 1.22 8.08 3.08L8.08 3.08L8.08 3.40L6.20 3.40L6.20 3.40Q6.20 2.17 5.77 1.60L5.77 1.60L5.77 1.60Q5.33 1.04 4.37 1.04L4.37 1.04L4.24 1.04L4.24 1.04Q3.47 1.04 3.00 1.43L3.00 1.43L3.00 1.43Q2.53 1.82 2.53 2.46L2.53 2.46L2.53 2.55L2.53 2.55Q2.53 3.26 2.98 3.64L2.98 3.64L2.98 3.64Q3.43 4.02 4.66 4.19L4.66 4.19L4.66 4.19Q6.48 4.44 7.33 5.15L7.33 5.15L7.33 5.15Q8.18 5.87 8.18 7.28L8.18 7.28L8.18 7.43L8.18 7.43Q8.18 8.97 7.17 9.83L7.17 9.83L7.17 9.83Q6.17 10.68 4.35 10.68L4.35 10.68L4.35 10.68Q0.52 10.68 0.52 6.96L0.52 6.96L0.52 6.82L2.39 6.82L2.39 6.82Q2.39 9.04 4.28 9.04L4.28 9.04L4.41 9.04L4.41 9.04Q5.28 9.04 5.77 8.62L5.77 8.62L5.77 8.62Q6.26 8.20 6.26 7.50L6.26 7.50L6.26 7.42L6.26 7.42Q6.26 6.69 5.77 6.30L5.77 6.30L5.77 6.30Q5.28 5.91 4.06 5.74ZM15.58 10.50L13.97 10.50L13.83 9.65L13.83 9.65Q12.94 10.68 11.41 10.68L11.41 10.68L11.41 10.68Q10.29 10.68 9.73 10.07L9.73 10.07L9.73 10.07Q9.17 9.45 9.17 8.50L9.17 8.50L9.17 8.36L9.17 8.36Q9.17 7.24 9.85 6.73L9.85 6.73L9.85 6.73Q10.53 6.22 11.76 6.03L11.76 6.03L13.65 5.74L13.65 5.71L13.65 5.71Q13.65 4.98 13.38 4.65L13.38 4.65L13.38 4.65Q13.10 4.31 12.42 4.31L12.42 4.31L12.42 4.31Q11.19 4.31 11.19 5.53L11.19 5.53L9.45 5.53L9.45 5.40L9.45 5.40Q9.45 4.33 10.14 3.61L10.14 3.61L10.14 3.61Q10.84 2.90 12.46 2.90L12.46 2.90L12.46 2.90Q14.11 2.90 14.79 3.61L14.79 3.61L14.79 3.61Q15.47 4.33 15.47 5.71L15.47 5.71L15.47 8.40L15.58 10.50ZM12.04 9.18L12.04 9.18L12.04 9.18Q13.08 9.18 13.65 8.41L13.65 8.41L13.65 6.85L12.10 7.10L12.10 7.10Q10.99 7.28 10.99 8.16L10.99 8.16L10.99 8.27L10.99 8.27Q10.99 8.65 11.26 8.92L11.26 8.92L11.26 8.92Q11.52 9.18 12.04 9.18ZM23.38 5.42L23.38 10.50L21.57 10.50L21.57 5.71L21.57 5.71Q21.57 5.15 21.28 4.82L21.28 4.82L21.28 4.82Q20.99 4.48 20.40 4.48L20.40 4.48L20.40 4.48Q19.38 4.48 18.86 5.33L18.86 5.33L18.86 10.50L17.04 10.50L17.04 5.18L16.91 3.08L18.52 3.08L18.69 4.06L18.69 4.06Q19.49 2.90 21.10 2.90L21.10 2.90L21.10 2.90Q22.25 2.90 22.81 3.61L22.81 3.61L22.81 3.61Q23.38 4.33 23.38 5.42L23.38 5.42ZM24.95 10.68L24.95 10.68L24.95 3.08L26.77 3.08L26.77 10.89L26.77 10.89Q26.77 13.48 24.18 13.48L24.18 13.48L24.18 13.48Q23.39 13.48 23.03 13.30L23.03 13.30L23.03 11.79L23.03 11.79Q23.30 11.90 23.74 11.90L23.74 11.90L23.74 11.90Q24.36 11.90 24.65 11.64L24.65 11.64L24.65 11.64Q24.95 11.38 24.95 10.68ZM24.86-0.18L26.85-0.18L26.85 1.79L24.86 1.79L24.86-0.18ZM34.52 10.50L32.91 10.50L32.77 9.65L32.77 9.65Q31.88 10.68 30.35 10.68L30.35 10.68L30.35 10.68Q29.23 10.68 28.67 10.07L28.67 10.07L28.67 10.07Q28.11 9.45 28.11 8.50L28.11 8.50L28.11 8.36L28.11 8.36Q28.11 7.24 28.79 6.73L28.79 6.73L28.79 6.73Q29.47 6.22 30.70 6.03L30.70 6.03L32.59 5.74L32.59 5.71L32.59 5.71Q32.59 4.98 32.32 4.65L32.32 4.65L32.32 4.65Q32.05 4.31 31.36 4.31L31.36 4.31L31.36 4.31Q30.13 4.31 30.13 5.53L30.13 5.53L28.39 5.53L28.39 5.40L28.39 5.40Q28.39 4.33 29.09 3.61L29.09 3.61L29.09 3.61Q29.78 2.90 31.40 2.90L31.40 2.90L31.40 2.90Q33.05 2.90 33.73 3.61L33.73 3.61L33.73 3.61Q34.41 4.33 34.41 5.71L34.41 5.71L34.41 8.40L34.52 10.50ZM30.98 9.18L30.98 9.18L30.98 9.18Q32.02 9.18 32.59 8.41L32.59 8.41L32.59 6.85L31.04 7.10L31.04 7.10Q29.93 7.28 29.93 8.16L29.93 8.16L29.93 8.27L29.93 8.27Q29.93 8.65 30.20 8.92L30.20 8.92L30.20 8.92Q30.46 9.18 30.98 9.18ZM37.30 3.08L38.92 8.23L40.56 3.08L42.52 3.08L39.90 10.14L38.92 13.30L36.76 13.30L37.94 10.14L35.32 3.08L37.30 3.08ZM47.92 4.76L47.92 5.32L47.92 5.32Q47.92 7.24 48.38 8.14L48.38 8.14L48.38 8.14Q48.85 9.04 49.98 9.04L49.98 9.04L50.11 9.04L50.11 9.04Q51.87 9.04 51.87 6.82L51.87 6.82L53.76 6.82L53.76 6.96L53.76 6.96Q53.76 8.88 52.83 9.78L52.83 9.78L52.83 9.78Q51.90 10.68 49.99 10.68L49.99 10.68L49.99 10.68Q47.94 10.68 46.97 9.41L46.97 9.41L46.97 9.41Q46.00 8.13 46.00 5.32L46.00 5.32L46.00 4.76L46.00 4.76Q46.00 1.95 46.97 0.67L46.97 0.67L46.97 0.67Q47.94-0.60 49.99-0.60L49.99-0.60L49.99-0.60Q51.90-0.60 52.83 0.31L52.83 0.31L52.83 0.31Q53.76 1.23 53.76 3.21L53.76 3.21L53.76 3.68L51.87 3.68L51.87 3.68Q51.87 2.32 51.47 1.68L51.47 1.68L51.47 1.68Q51.07 1.04 50.11 1.04L50.11 1.04L49.98 1.04L49.98 1.04Q48.85 1.04 48.38 1.94L48.38 1.94L48.38 1.94Q47.92 2.84 47.92 4.76L47.92 4.76ZM55.16-0.70L56.98-0.70L56.98 3.84L56.98 3.84Q57.78 2.90 59.22 2.90L59.22 2.90L59.22 2.90Q60.37 2.90 60.94 3.61L60.94 3.61L60.94 3.61Q61.50 4.33 61.50 5.42L61.50 5.42L61.50 10.50L59.70 10.50L59.70 5.71L59.70 5.71Q59.70 5.15 59.40 4.82L59.40 4.82L59.40 4.82Q59.11 4.48 58.52 4.48L58.52 4.48L58.52 4.48Q57.50 4.48 56.98 5.33L56.98 5.33L56.98 10.50L55.16 10.50L55.16-0.70ZM69.12 10.50L67.51 10.50L67.37 9.65L67.37 9.65Q66.47 10.68 64.95 10.68L64.95 10.68L64.95 10.68Q63.83 10.68 63.27 10.07L63.27 10.07L63.27 10.07Q62.71 9.45 62.71 8.50L62.71 8.50L62.71 8.36L62.71 8.36Q62.71 7.24 63.38 6.73L63.38 6.73L63.38 6.73Q64.06 6.22 65.30 6.03L65.30 6.03L67.19 5.74L67.19 5.71L67.19 5.71Q67.19 4.98 66.91 4.65L66.91 4.65L66.91 4.65Q66.64 4.31 65.95 4.31L65.95 4.31L65.95 4.31Q64.72 4.31 64.72 5.53L64.72 5.53L62.99 5.53L62.99 5.40L62.99 5.40Q62.99 4.33 63.68 3.61L63.68 3.61L63.68 3.61Q64.37 2.90 66.00 2.90L66.00 2.90L66.00 2.90Q67.65 2.90 68.33 3.61L68.33 3.61L68.33 3.61Q69.01 4.33 69.01 5.71L69.01 5.71L69.01 8.40L69.12 10.50ZM65.58 9.18L65.58 9.18L65.58 9.18Q66.61 9.18 67.19 8.41L67.19 8.41L67.19 6.85L65.63 7.10L65.63 7.10Q64.53 7.28 64.53 8.16L64.53 8.16L64.53 8.27L64.53 8.27Q64.53 8.65 64.79 8.92L64.79 8.92L64.79 8.92Q65.06 9.18 65.58 9.18ZM74.21 2.90L74.21 2.90L74.21 2.90Q74.26 2.90 74.33 2.91L74.33 2.91L74.33 2.91Q74.41 2.91 74.42 2.91L74.42 2.91L74.42 4.68L74.12 4.68L74.12 4.68Q72.91 4.68 72.39 5.46L72.39 5.46L72.39 10.50L70.57 10.50L70.57 5.18L70.45 3.08L72.06 3.08L72.21 3.98L72.21 3.98Q72.95 2.90 74.21 2.90ZM77.57 10.50L75.75 10.50L75.75-0.70L77.57-0.70L77.57 10.50ZM85.64 6.61L85.64 7.46L80.74 7.46L80.74 7.46Q80.84 9.27 82.40 9.27L82.40 9.27L82.40 9.27Q83.10 9.27 83.51 8.93L83.51 8.93L83.51 8.93Q83.92 8.58 83.92 8.12L83.92 8.12L85.64 8.12L85.64 8.18L85.64 8.18Q85.64 9.23 84.78 9.95L84.78 9.95L84.78 9.95Q83.92 10.68 82.39 10.68L82.39 10.68L82.39 10.68Q80.67 10.68 79.79 9.66L79.79 9.66L79.79 9.66Q78.92 8.64 78.92 6.97L78.92 6.97L78.92 6.61L78.92 6.61Q78.92 4.94 79.79 3.92L79.79 3.92L79.79 3.92Q80.65 2.90 82.32 2.90L82.32 2.90L82.32 2.90Q83.96 2.90 84.80 3.92L84.80 3.92L84.80 3.92Q85.64 4.94 85.64 6.61L85.64 6.61ZM82.28 4.31L82.28 4.31L82.28 4.31Q80.85 4.31 80.74 6.12L80.74 6.12L83.80 6.12L83.80 6.12Q83.72 4.31 82.28 4.31ZM89.84 9.27L89.84 9.27L89.84 9.27Q90.47 9.27 90.79 9.02L90.79 9.02L90.79 9.02Q91.11 8.76 91.11 8.34L91.11 8.34L91.11 8.34Q91.11 7.87 90.80 7.67L90.80 7.67L90.80 7.67Q90.50 7.46 89.70 7.39L89.70 7.39L89.70 7.39Q88.16 7.27 87.50 6.80L87.50 6.80L87.50 6.80Q86.84 6.33 86.84 5.35L86.84 5.35L86.84 5.24L86.84 5.24Q86.84 4.09 87.66 3.49L87.66 3.49L87.66 3.49Q88.48 2.90 89.84 2.90L89.84 2.90L89.84 2.90Q92.85 2.90 92.85 5.43L92.85 5.43L92.85 5.50L91.07 5.50L91.07 5.50Q91.07 4.31 89.84 4.31L89.84 4.31L89.84 4.31Q89.26 4.31 88.95 4.55L88.95 4.55L88.95 4.55Q88.63 4.79 88.63 5.19L88.63 5.19L88.63 5.19Q88.63 5.63 88.92 5.83L88.92 5.83L88.92 5.83Q89.21 6.03 89.99 6.09L89.99 6.09L89.99 6.09Q91.50 6.22 92.22 6.66L92.22 6.66L92.22 6.66Q92.93 7.11 92.93 8.18L92.93 8.18L92.93 8.27L92.93 8.27Q92.93 9.39 92.14 10.04L92.14 10.04L92.14 10.04Q91.35 10.68 89.84 10.68L89.84 10.68L89.84 10.68Q88.31 10.68 87.53 10.00L87.53 10.00L87.53 10.00Q86.74 9.31 86.74 8.23L86.74 8.23L86.74 8.18L88.55 8.18L88.55 8.18Q88.55 9.27 89.84 9.27Z"></path></g><defs data-v-fde0c5aa=""><!----></defs><g data-v-fde0c5aa="" id="80a68faf-ec8c-4d6b-8b96-c78ca6c12bdc" stroke="none" fill="#25347B" transform="matrix(1.4507676993975291,0,0,1.4507676993975291,110.82927211626671,81.15583239985192)"><g><path d="M47 21v22.767l3.875-2.327A6.463 6.463 0 0 0 54 35.922V21h-7M46 21.847v-1.415c0-2.835-.614-5.606-1.827-8.238-.134-.287-3.356-7.072-9.333-9.464a18.384 18.384 0 0 0-7.148-1.717C16.897.598 8 9.294 8 20v4.437l1.345.621C10.675 25.44 23 29.621 23 53v1.507l.288.211.308.207h.326l.078-.004V55h6v-.091c.027.002.051.016.079.016l.373-.015.548-.402V53c0-23.434 12.383-27.579 13.665-27.945l1.337-.589v-1.96l-.002.001v-.66zM31.952 28.3c-1.753.401-3.015 1.989-2.95 3.7v21H25l-.001-20.963c.065-1.747-1.197-3.336-2.949-3.737L10 23.33v-1.174a110.79 110.79 0 0 0 17 1.334c5.676 0 11.386-.46 17-1.334v1.175L31.952 28.3z"></path><path d="M5 5h7V0H3v21H0v14.922a6.463 6.463 0 0 0 3.125 5.518L7 43.767V21H5V5M33 53v.041l13.002-9.534v-16.87l-.755.332C44.751 27.1 33 30.472 33 53"></path><path d="M8.753 26.969l-.172-.061L8 26.64v16.867l13 9.533V53C21 30.352 8.875 27 8.753 26.969"></path></g></g><!----></svg>